# xmcd
#
# Track frame offsets:
# 182
# 16447
# 38555
# 60180
# 80057
# 115300
# 151115
# 169000
# 178700
#
# Disc length: 2576 seconds
#
#
# Revision: 2
# Processed by: cddbd v1.5.2PL0 Copyright (c) Steve Scherf et al.
# Submitted via: FreeRIP 2.942 
#
DISCID=620a0e09
DTITLE=Walter Horton - Shuffle And Swing
DYEAR=1996
DGENRE=Blues
TTITLE0=Walter's Shuffle
TTITLE1=Little Boy Blue
TTITLE2=It's Not Easy
TTITLE3=Two Old Maids
TTITLE4=What's on Your Worried Mind?
TTITLE5=Walter's Swing
TTITLE6=Hard Headed Woman
TTITLE7=Walter's Jump
TTITLE8=Leaving in the Morning
EXTD=BLUNC 069
EXTT0=
EXTT1=
EXTT2=
EXTT3=
EXTT4=
EXTT5=
EXTT6=
EXTT7=
EXTT8=
PLAYORDER=
